HIERARCHY
ROOT Hips
{
  OFFSET -45.8305 103.201 243.1
  CHANNELS 6 Xposition Yposition Zposition Zrotation Xrotation Yrotation
  JOINT RightUpLeg
  {
    OFFSET -8.9458 -8.66707 0.101652
    CHANNELS 3 Zrotation Xrotation Yrotation
    JOINT RightLeg
    {
      OFFSET 0 -44.4227 1.3727
      CHANNELS 3 Zrotation Xrotation Yrotation
      JOINT RightFoot
      {
        OFFSET 0.253549 -42.0924 -1.46059
        CHANNELS 3 Zrotation Xrotation Yrotation
        JOINT RightToes
        {
          OFFSET 0.04 -4.41509 8.4991
          CHANNELS 3 Zrotation Xrotation Yrotation
          End Site
          {
            OFFSET -0.08 -0.137448 9.77979
          }
        }
      }
    }
  }
  JOINT Spine
  {
    OFFSET 0 11.8905 0
    CHANNELS 3 Zrotation Xrotation Yrotation
    JOINT Spine1
    {
      OFFSET 0 25.6574 0.127663
      CHANNELS 3 Zrotation Xrotation Yrotation
      JOINT HEad
      {
        OFFSET 0 8.73416 0.011341
        CHANNELS 3 Zrotation Xrotation Yrotation
        End Site
        {
          OFFSET -0.29 12.7742 2.51395
        }
      }
      JOINT LeftShoulder1
      {
        OFFSET 8.99 -0.362252 -0.22
        CHANNELS 3 Zrotation Xrotation Yrotation
        JOINT LeftArm
        {
          OFFSET 10.2827 -0.00338 0.322123
          CHANNELS 3 Zrotation Xrotation Yrotation
          JOINT LeftForeArm
          {
            OFFSET 32.7669 0.099144 -1.42434
            CHANNELS 3 Zrotation Xrotation Yrotation
            JOINT LeftHand
            {
              OFFSET 27.5643 0.085362 1.02216
              CHANNELS 3 Zrotation Xrotation Yrotation
              End Site
              {
                OFFSET 16.7443 -0.6 1.50291
              }
            }
          }
        }
      }
      JOINT RightShoulder
      {
        OFFSET -8.99 -0.362252 -0.22
        CHANNELS 3 Zrotation Xrotation Yrotation
        JOINT RightArm
        {
          OFFSET -10.2827 -0.00338 0.322123
          CHANNELS 3 Zrotation Xrotation Yrotation
          JOINT RightForeArm
          {
            OFFSET -32.8971 0.099144 -1.42434
            CHANNELS 3 Zrotation Xrotation Yrotation
            JOINT RightHand
            {
              OFFSET -27.4921 0.085362 1.02216
              CHANNELS 3 Zrotation Xrotation Yrotation
              End Site
              {
                OFFSET -16.6312 -0.6 1.50291
              }
            }
          }
        }
      }
    }
  }
  JOINT LeftUpLeg
  {
    OFFSET 8.9458 -8.66707 0.101652
    CHANNELS 3 Zrotation Xrotation Yrotation
    JOINT LeftLeg
    {
      OFFSET 0 -44.4227 1.3727
      CHANNELS 3 Zrotation Xrotation Yrotation
      JOINT LeftFoot
      {
        OFFSET -0.253549 -42.0924 -1.46059
        CHANNELS 3 Zrotation Xrotation Yrotation
        JOINT LeftToes
        {
          OFFSET -0.04 -4.41509 8.4991
          CHANNELS 3 Zrotation Xrotation Yrotation
          End Site
          {
            OFFSET 0.08 -0.047448 9.77979
          }
        }
      }
    }
  }
}
MOTION
Frames:	14
Frame Time:	0.0166667
-45.6403 103.24 248.97 -0.0954179 -0.00487027 -170.102 10.461 -21.1689 -0.169678 -3.26584 23.2806 -28.8476 3.17566 -9.58288 -0.085486 0.0462048 0.000533964 0.662642 -0.094788 3.60023 0.286624 2.03105 11.9426 -0.339512 -3.83347 -3.33648 -1.07646 7.95139e-016 3.18055e-015 -1.59028e-015 -85.6537 -7.42562 -39.7244 -26.4784 13.0644 -7.82949 0.368473 9.90896 -0.00117927 -3.0848 0.0289163 -2.99998 90.6884 -42.0337 5.54389 13.1389 13.3673 8.26634 -0.369625 9.91382 0.00119886 3.55919 8.31011 -0.709975 -2.15735 36.0559 33.6289 -35.0405 4.97659 2.81928 -1.31993e-012 9.87562e-013 -4.0075e-013 
-45.6857 103.211 246.959 0.273007 0.0911723 -170.323 10.9161 -20.3301 -0.663325 -3.15175 24.3038 -28.2275 3.65837 -10.9345 -0.0227615 0.0462048 0.000533964 0.662642 0.286437 3.69654 0.298112 2.40152 11.8984 -0.364397 -3.95492 -3.51138 -1.07207 3.97569e-016 0 1.59028e-015 -86.0687 -7.78657 -38.0911 -26.8626 12.6796 -6.42103 0.368473 9.90896 -0.00117927 -3.50787 0.0292746 -2.95862 92.1647 -40.7835 7.2113 13.3222 13.4532 8.90079 -0.369625 9.91382 0.00119886 4.66109 5.79435 -1.86552 -3.15844 40.7364 34.2625 -34.5892 8.94428 3.98618 -1.32311e-012 9.90743e-013 -3.94389e-013 
-45.7424 103.191 244.979 0.634425 0.144682 -170.561 11.3894 -19.4768 -0.935048 -3.01238 25.1944 -27.8417 4.07864 -12.205 0.0359552 0.0462048 0.000533964 0.662642 0.663196 3.7891 0.306953 2.76111 11.8103 -0.38613 -4.07836 -3.68515 -1.04508 0 0 -0 -86.518 -8.28548 -36.4557 -27.201 12.2925 -5.0179 0.368473 9.90896 -0.00117927 -3.87314 0.0325447 -2.8594 93.4996 -39.4052 8.95401 13.5467 13.5456 9.55876 -0.369625 9.91382 0.00119886 5.55371 3.16457 -3.15307 -4.38594 45.3058 35.117 -34.336 11.9593 4.9017 -1.32629e-012 9.90743e-013 -4.0393e-013 
-45.8305 103.201 243.1 0.998101 0.0473858 -170.794 11.8587 -18.6437 -0.57124 -2.68977 25.7108 -28.2759 4.31398 -13.2593 0.0824285 0.0462048 0.000533964 0.662642 1.02986 3.88077 0.314797 3.11541 11.5662 -0.399686 -4.20213 -3.85938 -1.00043 -3.97569e-016 0 -0 -87.1132 -9.13022 -34.884 -27.4183 11.9082 -3.56024 0.368473 9.90896 -0.00117927 -4.02559 0.0426816 -2.65608 94.4764 -37.683 10.9487 13.9324 13.6656 10.317 -0.369625 9.91382 0.00119886 5.99601 0.144702 -4.90256 -5.90362 49.6889 35.968 -34.2407 12.3593 5.01303 -1.31993e-012 1.00028e-012 -4.0393e-013 
-45.9337 103.219 241.233 1.30137 -0.0471775 -171.159 12.3312 -17.6728 0.030519 -2.40294 25.9938 -28.7216 4.46659 -14.1775 0.122683 0.0462048 0.000533964 0.662642 1.38569 3.94795 0.306086 3.40414 11.3278 -0.407556 -4.338 -4.02477 -0.832838 3.97569e-016 0 -3.18055e-015 -87.64 -10.2933 -33.1865 -27.643 11.5438 -2.22929 0.368473 9.90896 -0.00117927 -4.19943 0.0594791 -2.25588 95.3962 -35.8119 13.1229 14.2899 13.7827 11.0382 -0.369625 9.91382 0.00119886 6.09013 -2.86976 -6.71297 -7.6716 53.5989 36.7925 -34.1864 11.41 4.70222 -1.33583e-012 9.97104e-013 -3.97569e-013 
-46.0437 103.242 239.283 1.45747 0.00664846 -171.881 12.8215 -16.3291 0.566849 -2.40735 26.0483 -28.2757 4.59373 -14.9321 0.157647 0.0462048 0.000533964 0.662642 1.70467 3.95187 0.265859 3.55723 11.2306 -0.41052 -4.51145 -4.16369 -0.370133 -7.95139e-016 0 -0 -87.8493 -11.9075 -31.0894 -28.0508 11.2278 -1.25818 0.368473 9.90896 -0.00117927 -4.60784 0.0901876 -1.42903 96.5526 -33.9548 15.5336 14.4245 13.8604 11.5115 -0.369625 9.91382 0.00119886 5.98756 -5.51056 -8.27266 -9.73602 56.6425 37.2614 -34.2323 9.73353 4.18376 -1.32311e-012 9.90743e-013 -4.0075e-013 
-46.1573 103.241 237.334 1.56021 0.126147 -172.684 13.329 -14.8819 1.1861 -2.52747 26.0908 -27.7822 4.70979 -15.7106 0.194668 0.0462048 0.000533964 0.662642 2.057 3.94089 0.193968 3.61 11.2405 -0.408716 -4.67538 -4.30202 0.182371 0 6.36111e-015 -0 -87.8692 -13.7156 -28.9067 -28.4505 10.9426 -0.426468 0.368473 9.90896 -0.00117927 -5.16038 0.116393 -0.540239 97.844 -31.99 18.0261 14.4819 13.9465 12.0327 -0.369625 9.91382 0.00119886 5.71829 -8.00325 -9.62622 -11.514 59.0476 37.5177 -34.1739 7.56409 3.51422 -1.32629e-012 9.82791e-013 -4.0075e-013 
-46.2646 103.166 235.446 1.69995 0.297761 -173.311 13.9108 -13.5578 1.97662 -2.68387 26.4508 -28.0522 4.89982 -16.7839 0.250782 0.0462048 0.000533964 0.662642 2.54243 3.96419 0.0729949 3.57384 11.4125 -0.403941 -4.77273 -4.44969 0.619052 -5.96354e-016 -6.36111e-015 -7.95139e-016 -87.8578 -15.446 -26.8979 -28.6504 10.6793 0.426009 0.368473 9.90896 -0.00117927 -5.83476 0.119147 0.0525782 99.3236 -29.8046 20.4998 14.5576 14.0744 12.8418 -0.369625 9.91382 0.00119886 5.36631 -10.484 -10.629 -12.4286 60.9911 37.7023 -33.6621 5.43127 2.81958 -1.32311e-012 9.98694e-013 -4.0393e-013 
-46.3786 103.071 233.591 1.79215 0.458242 -173.942 14.4208 -12.2489 2.82057 -2.83442 26.8083 -28.295 5.01361 -17.8747 0.299194 0.0462048 0.000533964 0.662642 3.04674 3.98053 -0.0602476 3.45017 11.6142 -0.391955 -4.86301 -4.63802 1.11271 9.93923e-016 0 7.95139e-016 -87.7092 -17.1602 -24.9266 -28.8066 10.4292 1.24271 0.368473 9.90896 -0.00117927 -6.63412 0.107271 0.558866 100.851 -27.5929 22.8957 14.5913 14.2367 13.899 -0.369625 9.91382 0.00119886 4.90916 -12.8735 -11.5234 -12.8771 62.204 37.9357 -33.0974 3.08275 2.06732 -1.32311e-012 9.95514e-013 -3.97569e-013 
-46.5051 103.001 231.779 1.75737 0.515275 -174.739 14.7315 -10.9137 3.67752 -2.92251 26.8839 -27.6915 4.83857 -18.7887 0.307369 0.0462048 0.000533964 0.662642 3.46269 3.95902 -0.170371 3.23258 11.7297 -0.368279 -4.98879 -4.92999 1.86496 5.96354e-016 -3.18055e-015 7.95139e-016 -87.3294 -18.8396 -22.9167 -29.051 10.177 2.00105 0.368473 9.90896 -0.00117927 -7.65798 0.0788157 1.12967 102.476 -25.5185 25.1517 14.5058 14.4378 15.302 -0.369625 9.91382 0.00119886 4.28113 -15.1634 -12.4759 -13.1095 62.4562 38.5512 -32.7667 0.369402 1.25348 -1.31675e-012 9.92333e-013 -4.0393e-013 
-46.6553 102.929 229.954 1.66007 0.541214 -175.493 14.8745 -9.58507 4.41188 -2.95681 26.8989 -27.1081 4.63715 -19.5476 0.306472 0.0462048 0.000533964 0.662642 3.86818 3.91797 -0.270455 2.95601 11.7639 -0.335418 -5.13063 -5.23867 2.58496 5.96354e-016 -6.36111e-015 -7.95139e-016 -86.8307 -20.4533 -20.9398 -29.2604 9.93276 2.75861 0.368473 9.90896 -0.00117927 -8.59602 0.0471659 1.58227 103.861 -23.5466 27.2385 14.4358 14.6647 16.8798 -0.369625 9.91382 0.00119886 3.5517 -17.2479 -13.5781 -13.0961 61.8019 39.1887 -32.6796 -2.48627 0.412153 -1.31675e-012 9.79611e-013 -4.0075e-013 
-46.8527 102.847 228.042 1.53729 0.58289 -175.962 14.8281 -8.28363 4.82193 -2.894 27.01 -27.4176 4.67492 -20.0725 0.324588 0.0462048 0.000533964 0.662642 4.32245 3.86959 -0.364423 2.65027 11.6412 -0.291537 -5.29438 -5.45373 2.94203 7.95139e-016 -3.18055e-015 -1.19271e-015 -86.3203 -21.9363 -19.0588 -29.3198 9.69567 3.6137 0.368473 9.90896 -0.00117927 -9.04536 0.0295098 1.67552 104.503 -21.6814 29.0196 14.5817 14.9295 18.5427 -0.369625 9.91382 0.00119886 2.71469 -19.0091 -15.1311 -13.033 60.2065 39.826 -33.0536 -5.42859 -0.464565 -1.31675e-012 9.95514e-013 -4.0075e-013 
-47.066 102.737 226.11 1.39885 0.625679 -176.413 14.6903 -7.00378 5.07522 -2.83451 27.1606 -27.7893 4.73629 -20.4706 0.340299 0.0462048 0.000533964 0.662642 4.77455 3.80126 -0.444378 2.32513 11.4882 -0.245353 -5.47906 -5.71319 3.25451 1.2921e-015 3.18055e-015 3.97569e-016 -85.7607 -23.3747 -17.2394 -29.3333 9.48028 4.42093 0.368473 9.90896 -0.00117927 -9.3862 0.0124361 1.73576 104.974 -19.959 30.7521 14.6805 15.1753 20.1424 -0.369625 9.91382 0.00119886 1.88493 -20.4454 -16.6668 -12.5151 57.7547 39.9528 -33.4826 -8.10229 -1.26663 -1.3247e-012 9.93923e-013 -4.07111e-013 
-47.2661 102.572 224.222 1.2509 0.668509 -177.09 14.5363 -5.77385 5.28529 -2.92414 27.3687 -27.6061 4.63387 -20.7585 0.330058 0.0462048 0.000533964 0.662642 5.19399 3.70136 -0.511285 1.95662 11.4466 -0.202787 -5.67894 -6.1617 3.79833 3.97569e-016 0 7.95139e-016 -85.1052 -24.8581 -15.4645 -29.4011 9.30483 5.02927 0.368473 9.90896 -0.00117927 -9.93793 -0.014705 2.09148 105.742 -18.4122 32.6727 14.5119 15.3668 21.5289 -0.369625 9.91382 0.00119886 1.248 -21.5455 -17.7257 -11.3343 54.4623 39.0114 -33.3894 -10.0332 -1.83633 -1.31993e-012 1.00347e-012 -3.94389e-013 
